<svg width="28" height="16" viewBox="0 0 28 16" fill="none" xmlns="http://www.w3.org/2000/svg">
<path d="M20.931 5.26606L23.2083 1.33026C23.4063 0.946582 23.2578 0.476266 22.8865 0.278238C22.7122 0.187361 22.5102 0.164908 22.3201 0.215283C22.1301 0.265657 21.9657 0.385223 21.8592 0.550527L19.5324 4.56059C17.7822 3.81918 15.9008 3.43713 14 3.43713C12.0992 3.43713 10.2179 3.81918 8.46763 4.56059L6.1408 0.550527C6.02829 0.377887 5.8532 0.25562 5.65237 0.209452C5.45154 0.163285 5.24063 0.196816 5.06402 0.302992C4.71748 0.525773 4.60609 0.971336 4.79174 1.33026L7.06905 5.26606C5.17957 6.34545 3.58277 7.87061 2.41785 9.70859C1.25293 11.5466 0.555251 13.6416 0.38562 15.811H27.6144C27.4448 13.6416 26.7471 11.5466 25.5822 9.70859C24.4173 7.87061 22.8205 6.34545 20.931 5.26606ZM7.81166 12.4074C7.40134 12.4074 7.00784 12.2444 6.7177 11.9543C6.42756 11.6642 6.26457 11.2707 6.26457 10.8603C6.26457 10.45 6.42756 10.0565 6.7177 9.76638C7.00784 9.47625 7.40134 9.31325 7.81166 9.31325C8.22197 9.31325 8.61548 9.47625 8.90562 9.76638C9.19575 10.0565 9.35875 10.45 9.35875 10.8603C9.35875 11.2707 9.19575 11.6642 8.90562 11.9543C8.61548 12.2444 8.22197 12.4074 7.81166 12.4074ZM20.1884 12.4074C19.7781 12.4074 19.3846 12.2444 19.0944 11.9543C18.8043 11.6642 18.6413 11.2707 18.6413 10.8603C18.6413 10.45 18.8043 10.0565 19.0944 9.76638C19.3846 9.47625 19.7781 9.31325 20.1884 9.31325C20.5987 9.31325 20.9922 9.47625 21.2823 9.76638C21.5725 10.0565 21.7355 10.45 21.7355 10.8603C21.7355 11.2707 21.5725 11.6642 21.2823 11.9543C20.9922 12.2444 20.5987 12.4074 20.1884 12.4074Z" fill="#F8F9FA"/>
</svg>
