<svg width="31" height="18" viewBox="0 0 31 18" fill="none" xmlns="http://www.w3.org/2000/svg">
<path d="M6.08358 0.011603C4.72358 0.011603 3.34358 0.541603 3.11358 0.831603C3.05358 0.951603 2.91358 1.9216 3.24358 1.9216C3.35358 1.9216 3.40358 1.9416 3.72358 1.7916C4.92358 1.3216 5.68358 1.3316 5.79358 1.3316C7.14358 1.2016 7.92358 2.1216 7.80358 3.3116V4.0116C6.66358 3.7416 6.01358 3.7316 5.69358 3.7316C4.03358 3.6316 2.49958 4.5076 2.49958 6.4316C2.49958 8.5416 4.38258 8.9916 5.11258 8.9616C6.20258 8.9716 7.24258 8.4816 7.93258 7.6316C8.48258 8.8616 8.83258 8.7816 8.84258 8.7816C8.94258 8.7816 9.02258 8.7416 9.10258 8.6916L9.67258 8.2916C9.77258 8.2316 9.85258 8.1316 9.86258 8.0116C9.85258 7.7216 9.33258 7.2716 9.37258 6.2616V3.1416C9.40376 2.71634 9.34909 2.28914 9.21183 1.88543C9.07457 1.48172 8.85751 1.10973 8.57358 0.791603C7.87928 0.212751 6.98405 -0.0676834 6.08358 0.011603ZM25.4566 0.011603C23.4566 0.011603 22.3066 1.2616 22.3366 2.5316C22.3366 4.2716 24.0966 4.8216 24.2966 4.8816C25.9866 5.4116 26.2166 5.4316 26.6866 5.8316C27.0866 6.2416 27.0366 7.0416 26.4466 7.3916C26.2766 7.4916 25.5466 7.9316 23.8966 7.5916C23.3466 7.4816 23.0566 7.3516 22.6066 7.1616C22.4866 7.1216 22.2066 7.0516 22.2066 7.4216V7.9116C22.2066 8.1416 22.3466 8.3516 22.5566 8.4516C23.6066 8.9816 24.8666 9.0016 25.1366 9.0016C25.1766 9.0016 27.4766 9.0026 28.2466 7.4516C28.4046 7.1316 28.8166 5.9616 28.0466 4.9616C27.4066 4.2116 26.8566 4.1316 25.2166 3.6316C25.0766 3.5916 23.8666 3.2816 23.8766 2.4316C23.8166 1.3416 25.2966 1.2816 25.6066 1.3016C26.8566 1.2816 27.4766 1.7516 27.8166 1.7816C27.9666 1.7816 28.0366 1.6916 28.0366 1.4916V1.0316C28.0417 0.921161 28.01 0.812144 27.9466 0.721603C27.5466 0.201603 26.0166 0.011603 25.4566 0.011603ZM10.2766 0.261603C10.1666 0.281603 10.0866 0.391603 10.1066 0.501603C10.1266 0.631603 10.1466 0.761603 10.1966 0.891603L12.4366 8.2816C12.4866 8.5216 12.6466 8.7816 12.9966 8.7416H13.8166C14.3166 8.7916 14.3866 8.3116 14.3966 8.2616L15.8666 2.1016L17.3566 8.2716C17.3666 8.3216 17.4366 8.8016 17.9266 8.7516H18.7566C19.1166 8.7916 19.2866 8.5316 19.3366 8.2916C21.8566 0.181604 21.6866 0.731602 21.7066 0.651602C21.7466 0.231602 21.5066 0.261603 21.4666 0.271603H20.5766C20.1266 0.221603 20.0366 0.631602 20.0166 0.731602L18.3566 7.1416L16.8566 0.731602C16.7866 0.241602 16.3866 0.261603 16.2866 0.271603H15.5166C15.0766 0.231603 14.9666 0.581602 14.9366 0.731602L13.4466 7.0516L11.8466 0.731602C11.8066 0.531602 11.6766 0.221603 11.2866 0.261603H10.2766ZM6.02258 4.8916C6.74258 4.9016 7.36458 5.0116 7.79458 5.1116C7.79458 5.6116 7.81258 5.8916 7.70258 6.3416C7.56258 6.8216 6.94358 7.6916 5.48358 7.7116C4.64358 7.7516 4.09358 7.0916 4.14358 6.3416C4.09358 5.1416 5.33358 4.8416 6.02358 4.8916H6.02258ZM28.5406 11.0036C27.6076 11.0166 26.5056 11.2256 25.6696 11.8126C25.4116 11.9916 25.4566 12.2396 25.7436 12.2066C26.6836 12.0936 28.7756 11.8396 29.1496 12.3176C29.5236 12.7956 28.7356 14.7676 28.3866 15.6496C28.2786 15.9126 28.5066 16.0216 28.7476 15.8216C30.3116 14.5116 30.7176 11.7656 30.3976 11.3716C30.2376 11.1736 29.4736 10.9906 28.5406 11.0036ZM0.71658 12.0036C0.49858 12.0336 0.40458 12.3096 0.63258 12.5286C4.54958 16.2026 9.72558 18.0016 15.4726 18.0016C19.5716 18.0016 24.3296 16.6646 27.6146 14.1446C28.1576 13.7246 27.6946 13.0976 27.1386 13.3446C23.4556 14.9706 19.4546 15.7536 15.8136 15.7536C10.4176 15.7536 5.19358 14.6266 0.96858 12.0676C0.89405 12.0188 0.805363 11.9963 0.71658 12.0036Z" fill="#F8F9FA"/>
</svg>
