<svg width="45" height="45" viewBox="0 0 45 45" fill="none" xmlns="http://www.w3.org/2000/svg">
<path d="M22.3615 0.536987C10.1291 0.536987 0.12085 10.523 0.12085 22.8221C0.12085 33.9424 8.26091 43.1722 18.8919 44.8403V29.2718H13.2428V22.8221H18.8919V17.9069C18.8919 12.3245 22.2058 9.2553 27.2989 9.2553C29.7231 9.2553 32.2585 9.67788 32.2585 9.67788V15.1713H29.4562C26.6984 15.1713 25.831 16.8838 25.831 18.6408V22.8221H32.0139L31.013 29.2718H25.831V44.8403C31.0719 44.0126 35.8442 41.3385 39.2864 37.3008C42.7286 33.2632 44.6139 28.1279 44.6021 22.8221C44.6021 10.523 34.5938 0.536987 22.3615 0.536987Z" fill="#F8F9FA"/>
</svg>
