<svg width="29" height="30" viewBox="0 0 29 30" fill="none" xmlns="http://www.w3.org/2000/svg">
<path d="M12.8717 29.4062C12.4405 29.3547 11.9883 29.2884 11.8671 29.2585C11.6887 29.2162 11.5093 29.1784 11.329 29.1452C11.1231 29.1053 10.9188 29.0574 10.7166 29.0018C9.77753 28.7326 9.71024 28.7106 9.00223 28.4211C8.35087 28.1556 7.15077 27.5352 6.74023 27.2529C6.62786 27.175 6.52273 27.1122 6.50665 27.1122C6.49056 27.1122 6.22798 26.9274 5.92257 26.7015C3.98093 25.2644 2.52323 23.5199 1.46994 21.3711C1.28869 21.0021 1.14074 20.6747 1.14074 20.6439C1.14074 20.6135 1.10812 20.5295 1.06824 20.4588C0.986 20.3117 0.868867 19.995 0.774391 19.6676C0.733785 19.5285 0.68653 19.3914 0.632789 19.2569C0.588609 19.1526 0.553039 19.0258 0.553039 18.9746C0.553039 18.9231 0.508859 18.7559 0.454937 18.6019C0.401016 18.4489 0.357516 18.2684 0.357516 18.2009C0.357516 18.1338 0.315148 17.9018 0.262812 17.6852C0.135484 17.1505 0 15.7655 0 14.9893C0 14.214 0.135484 12.8291 0.262812 12.2946C0.314922 12.0778 0.357516 11.8415 0.357516 11.769C0.357516 11.6962 0.390367 11.5537 0.430016 11.4518C0.470797 11.3503 0.522906 11.1679 0.546922 11.0467C0.571844 10.9255 0.628484 10.7166 0.674477 10.5811L0.808148 10.1901C0.90625 9.89711 0.997328 9.64925 1.04083 9.55273C1.06575 9.49881 1.16295 9.27859 1.25765 9.06336C1.4108 8.71559 1.73909 8.05969 1.93099 7.71645C2.001 7.5907 2.02751 7.54902 2.40632 6.95701C3.00648 6.01723 4.03213 4.84794 4.98687 4.01441C5.32331 3.72056 6.44729 2.86733 6.49781 2.86733C6.51186 2.86733 6.61789 2.80366 6.73412 2.72573C7.0393 2.52137 7.33859 2.34782 7.72873 2.1523C7.86877 2.08304 8.00746 2.01105 8.1447 1.93638C8.20927 1.89923 8.33048 1.84349 8.95284 1.56482C9.08991 1.50365 9.23763 1.44791 9.66334 1.29906C9.75714 1.26644 9.94564 1.19734 10.0802 1.14681C10.2157 1.09652 10.375 1.05483 10.4343 1.05483C10.4928 1.05483 10.6466 1.01405 10.776 0.963751C10.9051 0.913227 11.1396 0.85568 11.298 0.836196C11.4557 0.817618 11.6652 0.773438 11.7636 0.738774C11.861 0.705243 12.1283 0.661743 12.3574 0.642485C12.6559 0.615466 12.9537 0.580335 13.2503 0.537134C13.8593 0.447868 15.1833 0.447868 15.786 0.537134C16.0706 0.577983 16.3563 0.611601 16.6426 0.637954C16.8585 0.655852 17.1338 0.700938 17.255 0.738094C17.3762 0.774344 17.586 0.819657 17.7206 0.836196C17.8552 0.854094 18.0817 0.909829 18.224 0.961032C18.3667 1.01314 18.5285 1.05483 18.5842 1.05483C18.64 1.05483 18.7551 1.08587 18.8391 1.12484C18.9241 1.1629 19.1038 1.22656 19.2392 1.26644C19.3738 1.30722 19.6047 1.38765 19.7535 1.44701C19.9013 1.50614 20.0995 1.58408 20.1942 1.61942C20.3686 1.68513 21.6578 2.33015 21.8331 2.44003C23.2562 3.32748 23.9882 3.90725 24.9724 4.92406C26.1591 6.15067 26.9469 7.31883 27.7487 9.03844C27.8053 9.15987 27.8919 9.33954 27.9415 9.43673C27.9902 9.53506 28.031 9.65016 28.031 9.69275C28.031 9.7358 28.0718 9.86494 28.1221 9.98026C28.2585 10.2936 28.3751 10.6502 28.4302 10.9228C28.4574 11.0564 28.5079 11.2218 28.5423 11.29C28.577 11.358 28.6176 11.5309 28.6336 11.6725C28.6495 11.8138 28.6964 12.0458 28.7363 12.1865C28.9674 12.9865 29.0822 15.3434 28.9425 16.3859C28.901 16.6956 28.8541 17.0701 28.8382 17.2178C28.8115 17.4709 28.6778 18.125 28.5636 18.5647L28.4458 19.0303C28.2238 19.9268 27.6751 21.2039 27.0051 22.3855C26.7396 22.8544 25.8494 24.1227 25.6813 24.2714C25.6661 24.2845 25.5909 24.3733 25.5148 24.4669C25.4387 24.5616 25.1944 24.8262 24.9733 25.0546C23.9989 26.0608 23.2129 26.6829 21.8331 27.5398C21.6696 27.6415 20.2819 28.3194 20.0225 28.4247C19.8879 28.4786 19.6631 28.5697 19.5233 28.6264C19.3845 28.6823 19.2295 28.7292 19.1808 28.7301C19.1321 28.7308 19.0038 28.7743 18.8958 28.8264C18.7879 28.8785 18.6506 28.922 18.5897 28.9229C18.5294 28.9238 18.3534 28.9664 18.1984 29.0176C18.0437 29.0697 17.8284 29.1257 17.7204 29.1422C17.6125 29.1592 17.3816 29.2052 17.2063 29.2442C17.0312 29.2832 16.5017 29.3593 16.0311 29.4132C14.9814 29.5358 13.9209 29.5334 12.8717 29.4062ZM13.9372 26.5741C14.0052 26.5211 14.0752 26.4156 14.0938 26.3415C14.1346 26.1777 20.7171 12.9811 20.841 12.8157C20.9455 12.6759 20.9552 12.4521 20.8596 12.3732C20.8093 12.3308 20.179 12.3175 18.4966 12.3202C17.2346 12.3229 16.1736 12.3238 16.139 12.3229C16.0877 12.3211 16.0771 11.4778 16.0823 7.86598C16.0859 5.41525 16.0744 3.38774 16.0567 3.35965C16.039 3.3311 15.9699 3.30822 15.9026 3.30822C15.8079 3.30822 15.7638 3.349 15.7055 3.49128C15.5957 3.75591 15.2921 4.35675 13.8142 7.22616C13.5072 7.82164 13.201 8.4175 12.8955 9.01374C12.6336 9.52623 12.2203 10.3307 11.9786 10.8013C11.3279 12.0663 10.6786 13.3319 10.0306 14.5983C8.91297 16.7814 8.77771 17.0418 8.72968 17.0993C8.63679 17.2117 8.58627 17.4709 8.6386 17.5683C8.68618 17.6576 8.78111 17.6612 11.1405 17.6576C12.4893 17.656 13.6017 17.663 13.6132 17.6734C13.6443 17.7054 13.6327 26.1265 13.6008 26.3272C13.5797 26.4591 13.5938 26.5288 13.654 26.5891C13.7582 26.6935 13.7868 26.6926 13.9372 26.5741Z" fill="#F8F9FA"/>
</svg>
