<svg width="20" height="30" viewBox="0 0 20 30" fill="none" xmlns="http://www.w3.org/2000/svg">
<path d="M5.55563 10.5567C4.37683 10.5567 3.24631 10.0884 2.41278 9.25485C1.57924 8.42131 1.11096 7.29079 1.11096 6.11199C1.11096 4.9332 1.57924 3.80268 2.41278 2.96914C3.24631 2.1356 4.37683 1.66733 5.55563 1.66733H9.99963V10.5567M5.55563 10.5567H9.99963M5.55563 10.5567C4.37701 10.5567 3.24666 11.0249 2.41325 11.8583C1.57983 12.6917 1.11163 13.822 1.11163 15.0007C1.11163 16.1793 1.57983 17.3096 2.41325 18.143C3.24666 18.9765 4.37701 19.4447 5.55563 19.4447H9.99963V10.5567" stroke="#F8F9FA" stroke-width="2"/>
<path d="M18.8889 15.0008C18.8889 16.1796 18.4206 17.3102 17.5871 18.1437C16.7536 18.9772 15.623 19.4455 14.4442 19.4455C13.2654 19.4455 12.1349 18.9772 11.3014 18.1437C10.4678 17.3102 9.99957 16.1796 9.99957 15.0008C9.99957 13.822 10.4678 12.6915 11.3014 11.858C12.1349 11.0244 13.2654 10.5562 14.4442 10.5562C15.623 10.5562 16.7536 11.0244 17.5871 11.858C18.4206 12.6915 18.8889 13.822 18.8889 15.0008ZM5.55557 19.4462H9.99957V23.8902C9.99931 24.7691 9.73845 25.6281 9.24998 26.3588C8.7615 27.0894 8.06735 27.6588 7.2553 27.9949C6.44324 28.3311 5.54974 28.4189 4.68778 28.2473C3.82581 28.0757 3.03409 27.6523 2.41272 27.0307C1.79135 26.4092 1.36823 25.6173 1.19687 24.7553C1.0255 23.8933 1.11359 22.9998 1.44998 22.1879C1.78638 21.3759 2.35598 20.6819 3.08676 20.1937C3.81754 19.7054 4.67669 19.4462 5.55557 19.4462Z" stroke="#F8F9FA" stroke-width="2"/>
<path d="M9.99963 1.6675H14.4436C15.6224 1.6675 16.753 2.13577 17.5865 2.96931C18.42 3.80285 18.8883 4.93336 18.8883 6.11216C18.8883 7.29096 18.42 8.42148 17.5865 9.25502C16.753 10.0886 15.6224 10.5568 14.4436 10.5568H9.99963V1.6675Z" stroke="#F8F9FA" stroke-width="2"/>
</svg>
