<svg width="20" height="28" viewBox="0 0 20 28" fill="none" xmlns="http://www.w3.org/2000/svg">
<path d="M20 22.4406L10.875 27.5031C10.25 27.8281 9.625 27.8281 9 27.5031L0 22.4406L16.3125 6.00311L16.75 5.87811C17.125 5.87811 17.3375 6.04061 17.375 6.37811L20 22.4406ZM6.6875 6.25311L1 15.6906L3.375 0.753113C3.4125 0.415613 3.625 0.253113 4 0.253113C4.25 0.253113 4.4125 0.328113 4.5 0.565613L7.1875 5.50311L6.6875 6.25311ZM12.3125 7.82811L0.375 19.8156L9.4375 4.44061C9.5625 4.19061 9.75 4.07811 10 4.07811C10.25 4.07811 10.4125 4.19061 10.5 4.44061L12.3125 7.82811Z" fill="#F8F9FA"/>
</svg>
