<svg width="33" height="30" viewBox="0 0 33 30" fill="none" xmlns="http://www.w3.org/2000/svg">
<path d="M9.86142 26.4955C8.60467 25.5055 7.26267 24.5567 6.34692 23.223C4.41917 20.869 2.93417 18.1437 1.91942 15.2796C1.30617 13.4165 1.09442 11.4186 0.305175 9.62833C-0.522575 8.33033 0.4468 6.90858 1.86992 6.49333C2.50242 6.37371 3.61892 5.77558 2.2728 6.20321C1.06555 7.08871 0.948675 5.39883 2.18617 5.29296C3.0318 5.18021 3.34117 4.48858 3.05242 3.86708C2.14492 3.27583 5.25242 2.62546 3.68905 1.74408C2.06242 -0.0145447 5.96742 -0.35142 5.00492 1.64233C4.7753 3.17546 7.73292 1.36046 7.0468 3.13146C7.74392 3.98258 9.6593 3.32396 9.61117 4.51883C10.6287 4.58758 10.9765 5.44283 11.9308 5.50883C12.9208 5.95571 14.711 6.30633 15.0465 7.42008C14.0662 8.19833 11.796 5.81821 11.6874 7.96733C11.983 11.1436 11.9074 14.4147 13.0679 17.4383C13.6179 19.2698 14.9517 20.7108 16.1534 22.1381C17.3043 23.5351 18.8635 24.5168 20.453 25.346C21.8473 26.0032 23.3502 26.4391 24.8709 26.7127C25.4869 26.2411 26.5759 24.4893 27.5357 25.2277C27.581 26.0582 25.6272 26.9643 27.4435 26.8722C28.5105 26.5505 29.2503 27.6972 30.1289 26.6632C30.9374 27.6216 33.4922 26.05 32.916 28.0107C32.1378 28.5112 31.002 28.2087 30.2224 28.899C28.9368 28.2568 27.9124 29.4737 26.4893 29.3197C24.9072 29.5922 23.3042 29.7256 21.6988 29.7185C19.0698 29.5122 16.3844 29.4242 13.8833 28.5085C12.4753 28.1001 11.1003 27.2971 9.86142 26.4955ZM12.082 27.458C13.457 28.052 14.8018 28.679 16.3088 28.8687C18.7013 29.1987 21.1722 29.713 23.5729 29.2455C22.4867 28.7546 21.3619 29.438 20.2798 28.8948C18.9818 29.174 17.5889 28.8233 16.2689 28.6515C14.7674 27.9832 13.1477 27.524 11.7438 26.655C9.98792 26.0142 12.6513 27.4772 13.1257 27.5968C14.2229 28.2197 11.9198 27.2765 11.5939 27.018C10.6754 26.5023 10.5572 26.6096 11.5032 27.1335C11.6943 27.2435 11.8827 27.3617 12.0807 27.4566L12.082 27.458ZM9.46405 25.6072C10.7978 26.1008 9.45855 24.6695 8.8453 24.752C8.5758 24.2831 7.81267 23.9861 8.3503 23.7345C7.3823 24.07 7.33692 22.4557 6.87905 22.6853C5.85605 22.3622 6.4803 21.2141 5.26205 20.5128C5.15067 19.7703 4.0493 19.1268 3.6973 18.0076C3.54192 17.4356 2.45292 15.7897 3.12255 17.3201C3.6918 18.7941 4.69417 20.0563 5.5288 21.3172C6.17505 22.5176 6.94092 23.773 8.12067 24.521C8.51942 24.9032 8.90167 25.4876 9.46405 25.6072ZM5.62367 21.3901C5.66905 21.1893 5.86705 21.826 5.62367 21.3901V21.3901ZM11.0604 26.1985C10.6342 26.0335 11.356 26.0665 11.0604 26.1985V26.1985ZM11.7837 26.4625C11.4537 26.666 11.7094 26.0981 11.7837 26.4625V26.4625ZM12.6912 26.8406C12.0257 26.5821 13.1202 26.4281 12.6912 26.8406V26.8406ZM14.2408 27.7068C13.402 27.5597 14.5034 27.3191 14.2408 27.7068V27.7068ZM11.2612 25.6265C10.3949 25.621 11.9308 25.1933 11.2612 25.6265V25.6265ZM11.9404 25.9647C11.6984 26.0678 11.9212 25.7365 11.9404 25.9647V25.9647ZM15.3367 28.085C15.8825 28.4287 18.5267 28.8412 16.8698 28.2266C16.5948 28.2843 13.8035 27.4373 15.3353 28.085H15.3367ZM9.9453 23.8857C9.0983 23.6313 9.8903 23.6561 9.9453 23.8857V23.8857ZM11.5265 24.807C10.6727 24.587 11.939 24.5182 11.5265 24.807V24.807ZM12.8548 25.6223C11.8978 25.3982 13.446 25.3996 12.8548 25.6223V25.6223ZM9.3018 23.1845C9.94255 23.6767 11.8868 23.2477 10.2835 22.8916C9.5548 22.5025 7.90892 22.2371 9.02955 23.1253L9.3018 23.1845ZM13.7568 25.9042C12.6362 25.643 14.0222 25.4505 13.7568 25.9042V25.9042ZM12.4038 24.8276C13.9713 25.2717 11.0865 23.8376 12.0174 24.6653L12.2237 24.7588L12.4038 24.8276ZM15.1167 26.3951C13.776 26.193 16.6017 26.4088 15.1167 26.3951V26.3951ZM8.73117 22.3251C8.36542 22.3498 8.67342 22.0501 8.73117 22.3251V22.3251ZM17.6274 27.8045C17.142 28.1757 17.6659 27.3053 17.6274 27.8045V27.8045ZM11.2612 23.8775C10.7992 23.8665 11.1732 23.6148 11.2612 23.8775V23.8775ZM8.87142 22.1532C7.70542 21.7778 9.72392 22.1023 8.87142 22.1532V22.1532ZM6.03892 20.3217C5.11217 19.5875 5.93305 19.9133 6.03892 20.3217V20.3217ZM13.4735 25.0448C13.3168 24.8661 13.3993 25.0833 13.4735 25.0448V25.0448ZM18.1018 27.8842C17.8502 27.9873 18.088 27.6133 18.1018 27.8842V27.8842ZM13.0638 24.6213C12.3378 24.5155 13.1463 24.2707 13.0638 24.6213V24.6213ZM9.61805 22.4323C8.60055 22.0047 10.2505 22.3636 9.61805 22.4323V22.4323ZM15.4494 26.0582C14.4869 25.8657 16.4367 25.6663 15.4494 26.0582V26.0582ZM12.4162 23.9998C13.5533 24.1456 11.0618 23.2257 12.1673 23.9173L12.4162 23.9998ZM16.3707 26.4308C17.4335 25.7956 17.0829 27.9186 18.1733 26.6096C19.2485 25.8258 17.2452 27.5817 18.572 26.7512C19.529 26.1091 20.9453 27.0537 21.839 27.3631C22.4825 27.3315 23.1082 27.92 23.7682 27.5625C25.0373 27.2187 21.2849 27.0537 22.2694 26.4487C21.1075 26.7856 20.2482 26.0445 19.6775 25.3006C18.374 24.9981 16.867 24.334 16.2167 23.1803C15.9527 22.7472 16.6017 23.2408 15.9884 22.5341C15.2047 21.8356 14.8114 21.0422 14.2834 20.1938C13.655 19.8583 13.5822 18.8697 13.5175 20.1608C13.523 19.3455 12.7572 18.7968 12.5715 19.0251C12.5688 18.24 13.3897 18.6332 12.8135 18.053C12.6898 17.239 12.2828 16.3892 12.1604 15.4721C11.9707 15.0293 12.1329 14.082 11.51 15.0843C11.2832 16.1431 11.4344 13.7822 11.7878 14.5618C12.2512 13.7643 11.6228 13.8606 11.5953 13.9706C11.8978 13.2996 11.7878 12.3481 11.5169 12.7111C11.6778 12.0002 11.7713 10.0958 11.2763 10.4341C11.576 9.69158 11.8455 7.03371 10.542 8.04708C10.014 8.05396 9.10105 8.23958 8.66792 8.45408C10.0237 9.20071 8.53042 8.72358 7.98042 8.60533C7.90892 9.29558 7.36167 8.99721 6.67967 9.00408C7.77005 9.13883 6.14892 10.1178 5.5233 9.73833C4.71205 10.1261 6.22455 11.0955 5.5398 11.3952C5.6223 11.8462 4.29542 11.2302 4.39855 12.2752C3.61067 11.9438 4.2913 13.5127 4.68592 12.982C6.02655 13.345 5.62917 14.1727 5.66217 14.9578C5.44492 15.4157 4.58417 13.8812 5.46967 13.9527C4.77255 12.8156 4.6983 13.5402 4.11667 14.0696C3.97917 14.1081 5.6003 14.8217 4.58417 15.1737C5.47792 15.3112 5.50267 16.095 5.68417 16.59C6.22042 17.1496 6.11042 15.9712 6.7553 16.645C6.3483 16.0455 4.60067 14.9565 6.0073 15.3057C6.00042 14.7007 5.75292 14.2153 6.18467 14.2277C6.61092 13.455 5.7378 16.1348 6.7003 15.1517C6.96567 15.0348 7.0303 14.3776 7.51155 15.2136C8.20592 15.8983 7.7618 16.3933 6.78142 15.7677C6.95605 16.3631 8.09317 16.5748 7.88005 17.5071C8.10692 18.3252 8.42317 18.0241 8.69955 17.9773C8.9168 18.7721 9.03917 18.1877 9.05017 17.8082C10.0402 18.0213 9.80917 18.6057 10.1199 19.0182C10.8033 19.3262 9.14092 16.9255 10.3152 18.295C11.5499 19.4087 10.7785 19.8762 9.66892 19.6975C10.3702 19.6411 10.597 20.6462 11.4743 20.6105C12.2745 20.9913 12.8149 22.453 11.4372 21.8438C10.9587 21.4135 9.26467 20.8813 10.6493 21.7008C11.9267 22.2921 12.9387 22.6468 14.1707 23.388C15.0507 24.0177 15.4329 24.7382 15.7657 24.8812C15.0259 25.2346 13.534 24.598 14.6423 24.4027C13.9507 24.2776 13.1738 23.9283 13.8352 24.7877C14.3989 25.2593 15.8289 25.2085 16.086 25.2621C15.8674 25.7406 15.4948 25.7791 16.0943 25.8162C15.426 26.1737 16.3088 26.2273 16.3707 26.4308ZM15.0039 22.5698C14.5969 22.1436 14.491 21.3461 14.931 22.0405C15.1565 22.1312 15.6529 23.3426 15.0039 22.5698ZM19.4562 25.3982C19.4644 25.5907 19.7105 25.3831 19.4562 25.3982V25.3982ZM14.3604 21.5262C14.3467 20.8827 14.5075 22.0212 14.3604 21.5262V21.5262ZM13.9177 20.9308C13.4062 19.9408 14.5639 21.2113 13.9177 20.9308V20.9308ZM8.55517 17.2293C8.70367 17.7436 8.8563 17.1468 8.55517 17.2293V17.2293ZM12.8232 19.5421C13.0074 18.8491 13.0404 20.1251 12.8232 19.5421V19.5421ZM9.80917 17.4452C9.59605 17.063 10.2533 17.8027 9.80917 17.4452V17.4452ZM12.3969 18.2757C11.9129 17.1895 12.7407 17.6817 12.5042 18.4545L12.3969 18.2757ZM7.93367 15.2988C7.71642 14.9413 7.35892 13.8963 7.47442 13.5773C7.57892 14.0971 8.57992 15.8145 7.9653 14.2896C7.28605 13.0108 8.77655 14.7048 8.93055 15.0238C8.9993 15.3401 8.51117 14.9372 8.84255 15.6811C8.23755 14.8327 8.48505 16.1486 7.93367 15.2988ZM6.55455 14.3487C6.60955 13.5196 6.8708 14.9166 6.55455 14.3487V14.3487ZM7.1733 14.5618C7.4703 13.9362 7.67655 15.4336 7.1733 14.5618V14.5618ZM5.6828 13.4068C5.16855 12.8981 4.7973 12.4265 5.70617 13.0906C6.0568 13.1043 4.92792 12.0208 5.78867 12.7468C6.69617 12.9118 6.2383 14.2346 5.6828 13.4068ZM6.46655 13.3862C6.62467 13.6777 6.76492 13.0906 6.46655 13.3862V13.3862ZM6.9478 13.5416C6.4968 12.6932 7.4978 13.8963 6.9478 13.5416V13.5416ZM5.98942 12.6245C4.49617 11.2962 7.8663 13.3202 6.2328 12.872L5.98942 12.6245ZM10.2657 15.1105C9.61942 14.7227 10.0965 12.3825 10.3165 13.983C10.9449 13.7795 10.2822 14.808 10.7497 14.7997C10.6768 15.4501 10.4664 15.6838 10.2684 15.1105H10.2657ZM11.8469 16.0455C11.9129 15.3401 11.983 16.5267 11.8469 16.0455V16.0455ZM11.5719 15.7732C11.5815 16.128 11.6462 15.4707 11.5719 15.7732V15.7732ZM6.28367 12.1886C5.3253 10.8645 9.0708 13.5265 6.8983 12.5241C6.67142 12.465 6.3978 12.4416 6.28367 12.1886ZM9.33067 13.8042C9.23992 12.6905 9.5328 13.9885 9.33067 13.8042V13.8042ZM11.6434 15.2878C11.6572 15.7072 11.8222 14.6526 11.6434 15.2878V15.2878ZM6.42942 11.6826C7.00005 11.5616 8.79167 12.685 7.14442 12.0043C6.96292 11.8008 6.57242 11.8943 6.42942 11.6826ZM11.3244 14.1232C11.3849 12.982 11.6654 13.4426 11.3272 14.2855L11.3244 14.1232ZM6.8543 11.2866C7.08667 10.9456 6.23555 9.74658 6.97667 10.8562C7.29567 11.1106 7.90067 11.2825 7.3658 11.3883C8.20455 12.1295 7.15955 11.5891 6.8543 11.2866ZM11.0824 13.7671C11.224 14.5275 11.2433 12.4691 11.0824 13.7671V13.7671ZM6.36892 10.0876C6.46242 10.3241 6.5463 10.012 6.36892 10.0876V10.0876ZM7.47167 10.7448C7.75492 10.1481 7.99417 11.409 7.47167 10.7448V10.7448ZM10.5833 12.476C10.5805 12.2463 10.6424 12.8087 10.5833 12.476V12.476ZM10.4032 12.0772C9.97142 11.0102 10.8047 12.641 10.4032 12.0772V12.0772ZM10.1378 11.376C10.0649 10.936 10.3853 11.9315 10.1378 11.376V11.376ZM10.5695 10.6747C10.2725 10.1522 10.9435 8.37433 11.0178 9.47846C10.7057 10.3378 10.9284 10.8191 11.1457 9.66545C11.5485 8.75796 11.059 11.4571 10.5682 10.6761L10.5695 10.6747ZM11.0123 8.03058C11.0398 8.22171 11.1415 7.87246 11.0123 8.03058V8.03058ZM10.2712 22.6235C10.0952 22.4708 10.2932 22.7197 10.2712 22.6235V22.6235ZM11.7974 23.3935C12.643 23.6135 12.6389 23.2628 11.873 23.1597C11.4605 22.7747 10.1598 22.3691 11.323 23.1116C11.4014 23.3068 11.6462 23.3027 11.796 23.3948L11.7974 23.3935ZM8.7848 21.3942C9.2523 21.7421 10.5448 22.3828 9.4503 21.5262C9.82017 21.0972 8.74355 20.869 9.10105 20.583C8.19355 20.0275 8.38605 20.077 9.0213 20.0935C7.92955 19.6067 9.17805 19.6425 9.11755 19.3922C8.69817 19.3097 7.02755 18.6497 8.01205 19.4472C7.0138 18.9385 7.77417 19.637 7.47305 19.5627C6.45142 19.285 8.38055 20.3396 7.3108 20.0783C7.89517 20.5417 8.88655 21.2663 7.5583 20.5692C7.3823 20.8208 8.50705 21.2017 8.7848 21.3942ZM10.3798 22.3113C9.42967 21.5468 12.3185 22.9356 10.3798 22.3113V22.3113ZM18.5473 27.2586C18.2819 27.5886 18.5748 26.8736 18.5473 27.2586V27.2586ZM19.3874 27.612C19.8343 27.1788 19.4053 28.3036 20.1299 27.5061C20.1368 26.9355 20.1065 26.5986 19.2967 27.2916C19.0739 27.4153 18.9749 27.942 19.3874 27.612ZM6.06092 19.2423C5.09842 18.7061 5.92342 18.702 6.06092 19.2423V19.2423ZM6.95742 19.8308C5.76942 19.3303 6.62467 19.2781 6.95742 19.8308V19.8308ZM12.0587 22.9067C12.5564 23.3467 14.3439 23.2312 12.6637 22.9617C12.4134 22.5905 11.081 22.6812 12.0587 22.9067ZM19.067 27.2366C18.3245 27.5226 19.8343 26.5931 19.067 27.2366V27.2366ZM20.662 28.3311C20.332 28.4218 20.6662 28.1248 20.662 28.3311V28.3311ZM20.6634 28.0423C19.8412 28.096 21.5118 27.1431 20.6634 28.0423V28.0423ZM3.8568 17.3971C3.13355 16.3658 3.40717 15.9011 2.70867 15.0596C2.57667 14.4133 1.51242 12.9517 2.15867 14.5013C2.74992 15.4075 2.92592 16.81 3.8568 17.3971ZM20.398 27.7563C19.7573 27.3163 21.9587 26.7471 20.398 27.7563V27.7563ZM21.5888 28.2238C21.0938 28.0836 22.3725 27.5528 21.5888 28.2238V28.2238ZM5.79555 18.1011C5.21805 18.0585 6.01967 17.7683 5.79555 18.1011V18.1011ZM21.3399 27.9035C22.0975 27.4153 21.1667 27.491 21.2024 27.9475L21.3399 27.9035ZM11.0687 21.4272C10.6685 21.4547 11.0412 21.0972 11.0687 21.4272V21.4272ZM11.7012 21.7943C11.3932 21.859 11.5018 21.386 11.7012 21.7943V21.7943ZM22.5554 28.2348C23.5248 27.5336 21.9669 28.1001 22.3519 28.3668L22.5554 28.2348ZM22.1842 28.0561C21.3495 28.349 22.9734 27.3933 22.1842 28.0561V28.0561ZM24.0817 29.3183C23.4368 29.2042 24.6124 28.9636 24.0817 29.3183V29.3183ZM6.28367 17.8605C6.99455 18.02 9.12442 19.6122 7.86767 17.9705C7.22417 17.7807 7.61055 16.2063 6.9533 16.4855C7.3933 17.2211 7.3163 17.5346 6.38955 17.0712C5.22767 16.5033 5.7378 17.3517 5.9633 17.5855C5.6553 17.657 6.37442 17.855 6.28367 17.8605ZM3.04417 15.303C3.17067 14.7763 1.8713 12.4058 2.43092 14.115C2.63167 14.4725 2.60967 15.1517 3.04417 15.303ZM8.98967 18.9687C8.62392 18.6621 8.9718 18.9247 8.98967 18.9687V18.9687ZM9.89167 19.1777C8.8948 18.9522 9.89167 18.6208 9.89167 19.1777V19.1777ZM17.703 24.1043C17.1145 24.0961 17.5545 23.7221 17.703 24.1043V24.1043ZM18.0784 24.378C17.8625 24.4192 18.0234 24.1648 18.0784 24.378V24.378ZM21.1749 26.3305C20.8037 26.303 21.4719 26.1105 21.1749 26.3305V26.3305ZM4.66117 15.7155C3.74817 15.4817 5.51367 15.3855 4.66117 15.7155V15.7155ZM17.0142 23.5007C16.471 23.6382 17.0045 22.9493 17.0142 23.5007V23.5007ZM4.32292 14.9331C3.8183 14.8093 4.87155 14.7475 4.32292 14.9331V14.9331ZM5.91242 15.7031C5.74467 15.7718 5.9028 15.5202 5.91242 15.7031V15.7031ZM25.2862 27.5831C25.9902 27.4401 27.5934 27.9406 27.8519 27.3961C26.9994 27.3755 24.8957 26.7938 24.7967 27.5336L24.9837 27.5652L25.2862 27.5831ZM6.41705 15.8296C5.98117 15.809 6.42942 15.27 6.41705 15.8296V15.8296ZM2.24117 12.9311C1.5193 12.7688 2.05142 11.8655 2.24117 12.9311V12.9311ZM3.23667 13.1813C2.32505 12.8733 3.24905 12.8376 3.23667 13.1813V13.1813ZM3.80592 13.4605C3.64092 13.3271 3.67667 13.6282 3.80592 13.4605V13.4605ZM7.3878 15.7567C6.98905 15.6426 7.55555 15.6027 7.3878 15.7567V15.7567ZM3.4278 12.8307C2.2728 12.7097 3.33155 12.0263 3.4278 12.8307V12.8307ZM1.38455 11.5052C1.18655 11.6455 1.35705 11.134 1.38455 11.5052V11.5052ZM1.68705 11.2756C1.4258 11.3306 1.63892 10.8356 1.68705 11.2756V11.2756ZM3.36455 12.278C4.0768 11.9988 2.07205 11.7005 3.22155 12.223L3.36455 12.278ZM25.8238 26.1503C25.2463 26.0211 26.2775 25.7337 25.8238 26.1503V26.1503ZM28.538 27.557C28.0788 27.6257 28.7195 27.018 28.538 27.557V27.557ZM3.5378 11.398C2.97405 11.5011 3.61342 10.8755 3.5378 11.398V11.398ZM1.1508 9.80021C1.02292 9.06458 1.0408 7.77346 2.2673 8.21071C0.629675 8.5352 3.4003 10.2457 3.05105 8.89546C3.73855 8.92846 4.39855 8.48846 4.03555 9.15671C5.39267 9.00546 6.3318 7.83121 7.64355 7.99483C8.6638 7.86008 9.7803 7.75833 10.8803 7.34721C11.785 7.28121 12.654 6.30771 12.159 5.73158C10.927 5.62708 9.63592 5.78108 8.27192 6.05196C6.76217 6.36546 5.38992 6.96221 3.86505 7.21933C2.38005 7.41871 4.16342 7.76933 3.73855 7.84633C2.96305 8.11583 4.66255 8.29733 3.63817 8.58058C3.00567 8.45958 2.34567 8.24233 2.61655 7.57683C1.19342 7.75971 -0.0578252 8.35096 1.06692 9.79883L1.1508 9.80021ZM4.58005 8.05396C4.91417 6.82471 6.36755 9.06458 5.1273 8.21621C4.9788 8.10621 4.73542 8.01546 4.58005 8.05121V8.05396ZM4.64467 7.45721C4.90042 7.65796 5.12592 7.09971 4.64467 7.45721V7.45721ZM5.25655 7.46821C5.30055 6.90308 6.6563 7.76796 5.48067 7.67171L5.25655 7.46821ZM6.09255 7.13133C6.18055 7.44758 6.3978 6.77383 6.09255 7.13133V7.13133ZM6.30705 6.98833C6.8158 6.37783 9.18767 6.59921 7.45105 6.92921C6.9863 6.57858 6.6288 7.13546 6.30705 6.98833ZM9.4008 6.51121C9.32517 4.84196 10.9394 7.10521 9.4008 6.51121V6.51121ZM10.2808 6.50571C10.6012 5.66421 11.5265 6.16883 10.4293 6.33658C10.4527 6.42596 10.3963 6.77108 10.2808 6.50571ZM3.19267 10.9676C2.1738 10.4588 4.15105 10.3805 3.19267 10.9676V10.9676ZM3.9008 11.1656C3.17067 11.0198 4.23767 10.8081 3.9008 11.1656V11.1656ZM1.8108 9.68058C1.16317 9.52108 2.35942 9.2612 1.8108 9.68058V9.68058ZM30.1385 27.4043C29.7205 27.6243 30.155 26.9162 30.1385 27.4043V27.4043ZM27.2607 25.4381C26.8894 25.489 27.3432 24.8771 27.2607 25.4381V25.4381ZM30.9319 27.5941C31.6978 27.5941 33.2529 27.3562 31.585 27.3562C31.3238 27.3975 30.0615 27.3892 30.9319 27.5941ZM4.52367 10.8191C5.14242 10.7778 5.49442 10.1357 4.40405 10.1728C2.7128 9.99821 5.89455 10.7503 4.1868 10.5358C3.95717 10.6871 4.5113 10.8617 4.52367 10.8205V10.8191ZM5.07092 11.0968C4.87842 11.3086 5.00492 10.6981 5.07092 11.0968V11.0968ZM5.71717 9.36845C5.34592 9.27908 5.98805 9.03433 5.71717 9.36845V9.36845ZM3.65467 5.91996C4.76292 5.54321 6.2768 5.12108 6.7993 6.10558C6.26717 5.46483 6.5848 4.83508 7.08805 5.77146C7.79755 6.71883 8.15367 5.34108 7.6903 5.02208C8.21692 5.67658 8.81642 5.98458 8.04367 5.06333C8.88242 4.05408 6.36205 5.19671 5.78867 5.18433C5.51367 5.30808 2.93967 5.84021 3.65467 5.91996ZM4.30367 4.67833C4.93617 4.20121 6.48717 4.96158 5.49167 4.20396C5.39542 4.11871 3.31092 4.77871 4.30367 4.67833ZM6.60542 4.77321C7.34517 4.79108 6.2878 3.78046 7.1678 4.23696C7.02342 3.76533 6.14205 3.67733 5.7103 3.48896C5.4683 3.92071 6.20667 4.77871 6.60542 4.77321ZM4.70792 2.68321C4.25967 2.85921 4.96367 2.33671 4.70792 2.68321V2.68321ZM5.64842 2.90871C6.83917 2.75058 5.34592 2.39583 5.40917 2.89496L5.64842 2.90871ZM3.89255 1.53371C3.0538 0.439206 5.4683 1.71796 4.61717 0.571206C3.89942 0.000580519 3.21055 1.21471 3.89255 1.53371ZM14.6505 7.32933C15.0355 6.64733 13.0624 6.41083 14.392 7.08871C14.5158 7.12996 14.4883 7.37746 14.6505 7.32933Z" fill="#F8F9FA"/>
</svg>
