<svg width="34" height="34" viewBox="0 0 34 34" fill="none" xmlns="http://www.w3.org/2000/svg">
<path d="M3.68313 15.0022L11.8715 6.79975L14.2656 9.20808C13.9256 10.4122 14.4781 11.7297 15.5831 12.3672V20.2156C14.7331 20.6972 14.1665 21.6181 14.1665 22.6664C14.1665 23.4179 14.465 24.1385 14.9963 24.6699C15.5277 25.2012 16.2483 25.4997 16.9998 25.4997C17.7512 25.4997 18.4719 25.2012 19.0033 24.6699C19.5346 24.1385 19.8331 23.4179 19.8331 22.6664C19.8331 21.6181 19.2665 20.6972 18.4165 20.2156V13.3306L21.349 16.2914C21.2498 16.5039 21.2498 16.7447 21.2498 16.9997C21.2498 17.7512 21.5483 18.4719 22.0797 19.0032C22.611 19.5346 23.3317 19.8331 24.0831 19.8331C24.8346 19.8331 25.5552 19.5346 26.0866 19.0032C26.6179 18.4719 26.9165 17.7512 26.9165 16.9997C26.9165 16.2483 26.6179 15.5276 26.0866 14.9963C25.5552 14.4649 24.8346 14.1664 24.0831 14.1664C23.8281 14.1664 23.5873 14.1664 23.3748 14.2656L19.734 10.6247C19.9099 9.9686 19.8417 9.27091 19.542 8.66124C19.2424 8.05156 18.7317 7.57134 18.1048 7.30975C17.4956 7.08308 16.8581 7.02641 16.2915 7.18225L13.8831 4.78808L15.0023 3.68308C16.1073 2.56391 17.8923 2.56391 18.9973 3.68308L30.3165 15.0022C31.4356 16.1072 31.4356 17.8922 30.3165 18.9972L18.9973 30.3164C17.8923 31.4356 16.1073 31.4356 15.0023 30.3164L3.68313 18.9972C2.56396 17.8922 2.56396 16.1072 3.68313 15.0022Z" fill="#F8F9FA"/>
</svg>
