<svg width="40" height="39" viewBox="0 0 40 39" fill="none" xmlns="http://www.w3.org/2000/svg">
<path d="M19.9841 0C17.3598 0 14.7611 0.516905 12.3365 1.5212C9.91194 2.5255 7.70891 3.99752 5.85321 5.85322C2.10546 9.60097 0 14.684 0 19.9841C0 28.8171 5.73544 36.3112 13.6691 38.969C14.6683 39.1289 14.9881 38.5094 14.9881 37.9698V34.5925C9.45249 35.7916 8.27343 31.9146 8.27343 31.9146C7.35416 29.5965 6.05519 28.977 6.05519 28.977C4.23663 27.738 6.19508 27.7779 6.19508 27.7779C8.19349 27.9178 9.25265 29.8363 9.25265 29.8363C10.9913 32.8739 13.9289 31.9746 15.068 31.495C15.2479 30.196 15.7675 29.3167 16.327 28.8171C11.8906 28.3175 7.23425 26.5989 7.23425 18.9849C7.23425 16.7667 7.99365 14.9881 9.29262 13.5692C9.09278 13.0696 8.39333 10.9913 9.49246 8.29341C9.49246 8.29341 11.1711 7.75384 14.9881 10.3318C16.5668 9.89214 18.2855 9.67232 19.9841 9.67232C21.6828 9.67232 23.4014 9.89214 24.9802 10.3318C28.7971 7.75384 30.4758 8.29341 30.4758 8.29341C31.5749 10.9913 30.8755 13.0696 30.6756 13.5692C31.9746 14.9881 32.734 16.7667 32.734 18.9849C32.734 26.6189 28.0577 28.2975 23.6013 28.7971C24.3207 29.4166 24.9802 30.6357 24.9802 32.4942V37.9698C24.9802 38.5094 25.2999 39.1489 26.3191 38.969C34.2528 36.2912 39.9683 28.8171 39.9683 19.9841C39.9683 17.3598 39.4513 14.7611 38.4471 12.3365C37.4428 9.91195 35.9707 7.70891 34.115 5.85322C32.2593 3.99752 30.0563 2.5255 27.6317 1.5212C25.2071 0.516905 22.6085 0 19.9841 0Z" fill="#F8F9FA"/>
</svg>
