<svg width="40" height="41" viewBox="0 0 40 41" fill="none" xmlns="http://www.w3.org/2000/svg">
<g clip-path="url(#clip0_677_199)">
<path d="M36.6548 22.8467L30.1395 26.534L24.2959 20.727L30.1861 14.8734L36.6548 18.5342C37.0365 18.7501 37.3542 19.0635 37.5751 19.4423C37.7961 19.8211 37.9126 20.2519 37.9126 20.6904C37.9126 21.129 37.7961 21.5597 37.5751 21.9386C37.3542 22.3174 37.0365 22.6308 36.6548 22.8467ZM2.27311 2.2752C2.15032 2.57488 2.08707 2.89562 2.08691 3.21948V38.1597C2.08691 38.5205 2.16173 38.8563 2.29306 39.1572L20.838 20.7254L2.27311 2.2752ZM22.5669 19.008L27.9833 13.6249L5.78592 1.06325C5.30996 0.790327 4.756 0.685508 4.21322 0.765668L22.5669 19.008ZM22.5669 22.4443L4.27972 40.6202C4.77514 40.68 5.29715 40.5936 5.78592 40.316L27.9367 27.7809L22.5669 22.4443Z" fill="#F8F9FA"/>
</g>
<defs>
<clipPath id="clip0_677_199">
<rect width="39.8994" height="39.8994" fill="white" transform="translate(0.050293 0.739014)"/>
</clipPath>
</defs>
</svg>
