<svg width="40" height="41" viewBox="0 0 40 41" fill="none" xmlns="http://www.w3.org/2000/svg">
<g clip-path="url(#clip0_656_19)">
<path d="M14.8803 30.9242C8.88277 32.5998 18.5293 36.0614 26.1662 32.7895C24.9153 32.3033 24.0181 31.7423 24.0181 31.7423C20.6128 32.3861 19.0331 32.4367 15.9418 32.0836C13.3906 31.7914 14.8803 30.9242 14.8803 30.9242ZM25.2518 27.6555C20.7381 28.5239 18.1309 28.4961 14.8287 28.1555C12.2753 27.8914 13.9468 26.6539 13.9468 26.6539C7.34152 28.8464 17.624 31.3342 26.8559 28.6339C25.8746 28.2883 25.2518 27.6555 25.2518 27.6555ZM28.789 8.72578C28.7893 8.72578 15.4356 12.0598 21.8131 19.4092C23.6956 21.5764 21.3193 23.5248 21.3193 23.5248C21.3193 23.5248 26.0971 21.0589 23.9034 17.9695C21.8537 15.0898 20.2825 13.6592 28.789 8.72578ZM31.9134 34.0833C31.9134 34.0833 33.0162 34.9927 30.6984 35.6955C26.2915 37.0305 12.3528 37.433 8.48121 35.7489C7.09058 35.1433 9.69965 34.3036 10.5206 34.1264C11.3765 33.9411 11.8653 33.9748 11.8653 33.9748C10.3178 32.8852 1.86121 36.1155 7.5709 37.042C23.14 39.5658 35.9512 35.9055 31.9134 34.0833ZM26.5625 24.6042C27.3109 24.0936 28.3446 23.6502 28.3446 23.6502C28.3446 23.6502 25.3996 24.1767 22.4656 24.4233C18.8737 24.7245 15.0209 24.7839 13.0868 24.5252C8.50808 23.913 15.5971 22.2289 15.5971 22.2289C15.5971 22.2289 12.8434 22.0427 9.4584 23.6802C5.45465 25.6161 19.3618 26.4986 26.5625 24.6042ZM28.3153 29.337C28.2815 29.4277 28.169 29.5295 28.169 29.5295C37.9418 26.9605 34.3487 20.4736 29.6759 22.1155C29.2659 22.2605 29.0509 22.5977 29.0509 22.5977C29.0509 22.5977 29.31 22.4933 29.8878 22.3727C32.25 21.8805 35.6343 25.5348 28.3153 29.337ZM20.0565 22.1583C18.6146 18.8992 13.7253 16.048 20.0587 11.0461C27.9559 4.81266 23.9037 0.75766 23.9037 0.75766C25.5381 7.19766 18.1378 9.14297 15.4665 13.1536C13.6475 15.8864 16.3593 18.823 20.0565 22.1583ZM28.5796 38.3295C22.5837 39.4583 15.1878 39.3267 10.8025 38.6027C10.8025 38.6027 11.7006 39.3464 16.3168 39.6436C23.3406 40.0927 34.1293 39.3936 34.3843 36.0698C34.3846 36.0698 33.8937 37.3298 28.5796 38.3295Z" fill="white"/>
</g>
<defs>
<clipPath id="clip0_656_19">
<rect width="40" height="40" fill="white" transform="translate(0 0.261719)"/>
</clipPath>
</defs>
</svg>
