<svg width="41" height="41" viewBox="0 0 41 41" fill="none" xmlns="http://www.w3.org/2000/svg">
<path d="M35.7433 0.762695C36.922 0.762695 38.0525 1.23095 38.886 2.06444C39.7195 2.89794 40.1877 4.0284 40.1877 5.20714V36.3183C40.1877 37.497 39.7195 38.6275 38.886 39.4609C38.0525 40.2944 36.922 40.7627 35.7433 40.7627H4.63219C3.45345 40.7627 2.32299 40.2944 1.48949 39.4609C0.655997 38.6275 0.187744 37.497 0.187744 36.3183V5.20714C0.187744 4.0284 0.655997 2.89794 1.48949 2.06444C2.32299 1.23095 3.45345 0.762695 4.63219 0.762695H35.7433ZM34.6322 35.2071V23.4294C34.6322 21.508 33.8689 19.6654 32.5103 18.3068C31.1517 16.9482 29.3091 16.1849 27.3877 16.1849C25.4989 16.1849 23.2989 17.3405 22.2322 19.0738V16.6071H16.0322V35.2071H22.2322V24.2516C22.2322 22.5405 23.61 21.1405 25.3211 21.1405C26.1462 21.1405 26.9375 21.4683 27.521 22.0517C28.1044 22.6351 28.4322 23.4265 28.4322 24.2516V35.2071H34.6322ZM8.80997 13.1183C9.80011 13.1183 10.7497 12.7249 11.4498 12.0248C12.15 11.3246 12.5433 10.3751 12.5433 9.38492C12.5433 7.31825 10.8766 5.62936 8.80997 5.62936C7.81393 5.62936 6.85869 6.02504 6.15439 6.72934C5.45008 7.43364 5.05441 8.38888 5.05441 9.38492C5.05441 11.4516 6.7433 13.1183 8.80997 13.1183ZM11.8989 35.2071V16.6071H5.7433V35.2071H11.8989Z" fill="#F8F9FA"/>
</svg>
