<svg width="30" height="30" viewBox="0 0 30 30" fill="none" xmlns="http://www.w3.org/2000/svg">
<path d="M20.5063 6.87626C20.3625 6.87626 20.265 6.89376 20.1637 6.91751V6.93376H20.1813C20.2488 7.06376 20.3637 7.15876 20.4487 7.27501C20.5162 7.40876 20.5738 7.54251 20.6413 7.67501L20.6588 7.65626C20.7763 7.57376 20.8337 7.44126 20.8337 7.24001C20.7838 7.18126 20.7762 7.12251 20.7337 7.06501C20.6838 6.98126 20.5763 6.94001 20.5087 6.87376L20.5063 6.87626ZM7.2125 23.3688H6.05375C6.02093 21.5272 5.90833 19.688 5.71625 17.8563H5.70625L3.94375 23.3688H3.0625L1.3125 17.8563H1.3C1.1632 19.6909 1.08191 21.5292 1.05625 23.3688H0C0.0691667 20.9104 0.24 18.6063 0.5125 16.4563H1.95L3.61875 21.5363H3.62875L5.3125 16.4563H6.68125C6.98375 18.9763 7.16208 21.2804 7.21625 23.3688H7.2125ZM12.2337 18.2688C11.7612 20.8263 11.1396 22.6846 10.3687 23.8438C9.76625 24.7388 9.10667 25.1858 8.39 25.185C8.2 25.185 7.96417 25.1275 7.6825 25.0125V24.395C7.82083 24.4167 7.98167 24.4275 8.165 24.4275C8.5 24.4275 8.76958 24.335 8.97375 24.15C9.21958 23.925 9.3425 23.6729 9.3425 23.3938C9.3425 23.1996 9.24667 22.8063 9.055 22.2138L7.7875 18.2688H8.925L9.83375 21.2188C10.0396 21.8888 10.125 22.3567 10.09 22.6225C10.59 21.2908 10.9379 19.8396 11.1337 18.2688H12.2337ZM27.64 23.3688H24.3525V16.4563H25.4588V22.5188H27.64V23.3688ZM23.49 23.5375L22.22 22.9125C22.3333 22.8183 22.4396 22.7142 22.5387 22.6C23.0796 21.9667 23.3496 21.0279 23.3488 19.7838C23.3488 17.4963 22.4508 16.3521 20.655 16.3513C19.775 16.3513 19.0875 16.6417 18.5925 17.2225C18.0542 17.8575 17.785 18.7929 17.785 20.0288C17.7842 21.2446 18.0233 22.1363 18.5025 22.7038C18.9392 23.2163 19.5988 23.4725 20.4813 23.4725C20.8113 23.4725 21.1133 23.4317 21.3875 23.35L23.0437 24.315L23.4937 23.5375H23.49ZM19.375 21.985C19.0942 21.5342 18.9538 20.8108 18.9538 19.815C18.9538 18.0733 19.4829 17.2025 20.5413 17.2025C21.0963 17.2025 21.5033 17.4108 21.7625 17.8275C22.0425 18.28 22.1825 18.9979 22.1825 19.9813C22.1825 21.7371 21.6533 22.6154 20.595 22.6163C20.0392 22.6163 19.6317 22.4079 19.3725 21.9913L19.375 21.985ZM17.3025 21.4538C17.3025 22.0421 17.0875 22.5238 16.6575 22.8988C16.2292 23.2738 15.6525 23.4613 14.9275 23.4613C14.2488 23.4613 13.5975 23.2463 12.9613 22.8175L13.2575 22.2225C13.8042 22.4967 14.3 22.6333 14.745 22.6325C15.16 22.6325 15.4863 22.5408 15.7238 22.3575C15.8428 22.2683 15.9388 22.1521 16.004 22.0184C16.0692 21.8847 16.1017 21.7375 16.0987 21.5888C16.0987 21.1763 15.8112 20.8263 15.2887 20.5325C14.8038 20.2663 13.835 19.7113 13.835 19.7113C13.3075 19.3275 13.045 18.9163 13.045 18.24C13.045 17.6783 13.2408 17.2263 13.6325 16.8838C14.025 16.5371 14.5333 16.3642 15.1575 16.365C15.7983 16.365 16.3817 16.5358 16.9075 16.8775L16.6413 17.4725C16.222 17.2874 15.7695 17.1895 15.3112 17.185C14.9571 17.185 14.6846 17.2708 14.4938 17.4425C14.3977 17.5227 14.3202 17.6228 14.2666 17.7359C14.2131 17.849 14.1848 17.9724 14.1838 18.0975C14.1838 18.5075 14.4762 18.86 15.0162 19.16C15.5075 19.4288 16.5 19.9975 16.5 19.9975C17.0413 20.3788 17.31 20.785 17.31 21.4575L17.3025 21.4538ZM29.03 14.1388C28.3613 14.1213 27.8425 14.1888 27.4088 14.3738C27.2838 14.4238 27.0837 14.4238 27.0662 14.5825C27.135 14.6488 27.145 14.7575 27.2038 14.85C27.3038 15.0175 27.4762 15.2413 27.6362 15.3588C27.8096 15.4979 27.9875 15.6271 28.17 15.7463C28.495 15.9463 28.8638 16.065 29.1825 16.2663C29.3638 16.3838 29.5487 16.5325 29.7325 16.6575C29.8237 16.72 29.8825 16.8325 30 16.8725V16.8475C29.9425 16.7725 29.925 16.6638 29.8688 16.58C29.785 16.4963 29.7013 16.4213 29.6187 16.3388C29.3737 16.015 29.0807 15.7305 28.75 15.495C28.4825 15.3125 27.8975 15.0575 27.7875 14.7513L27.7712 14.7338C27.9537 14.7175 28.1712 14.6513 28.3463 14.6013C28.63 14.5263 28.89 14.5425 29.1838 14.4688C29.3171 14.4338 29.4504 14.3946 29.5837 14.3513V14.2763C29.4338 14.1263 29.3213 13.9225 29.1663 13.7825C28.7332 13.4049 28.2718 13.0609 27.7863 12.7538C27.5238 12.5863 27.1912 12.4788 26.915 12.3363C26.815 12.2863 26.6475 12.2613 26.59 12.1775C26.44 11.995 26.3525 11.7525 26.2463 11.535C26.0011 11.0587 25.773 10.5738 25.5625 10.0813C25.4125 9.75376 25.3213 9.42751 25.1375 9.12751C24.275 7.70626 23.3412 6.84501 21.905 6.00251C21.5963 5.82751 21.2262 5.75251 20.835 5.66001C20.6262 5.65001 20.4175 5.63501 20.21 5.62626C20.0725 5.56751 19.94 5.40876 19.8225 5.33251C19.3475 5.03251 18.1175 4.38251 17.7675 5.24251C17.5425 5.78501 18.1012 6.32001 18.295 6.59501C18.4387 6.78626 18.62 7.00501 18.72 7.22001C18.7787 7.36501 18.795 7.51376 18.8538 7.66501C18.9862 8.03251 19.1125 8.44251 19.2875 8.78626C19.3787 8.96126 19.4788 9.14501 19.5963 9.30251C19.6637 9.39376 19.7787 9.43626 19.805 9.58626C19.6875 9.75626 19.68 10.0038 19.6125 10.2113C19.3125 11.1575 19.43 12.3275 19.855 13.0238C19.9888 13.2313 20.3075 13.6913 20.7337 13.515C21.1087 13.365 21.0262 12.89 21.1337 12.4713C21.1587 12.3713 21.1425 12.305 21.1938 12.2375V12.2563C21.3113 12.4913 21.4288 12.715 21.5363 12.95C21.7938 13.36 22.2438 13.785 22.62 14.0688C22.82 14.2188 22.9788 14.4788 23.2288 14.5713V14.5463H23.21C23.1563 14.4738 23.085 14.4388 23.0175 14.38C22.8592 14.2247 22.7129 14.0575 22.58 13.88C22.2289 13.3981 21.9167 12.889 21.6462 12.3575C21.5087 12.095 21.3938 11.8125 21.2838 11.5538C21.2338 11.4538 21.2337 11.3038 21.15 11.2538C21.025 11.4363 20.8413 11.595 20.75 11.82C20.5913 12.18 20.575 12.6225 20.515 13.0825C20.4813 13.0913 20.4975 13.0825 20.4813 13.1C20.2138 13.035 20.1225 12.7575 20.0225 12.525C19.7725 11.9313 19.7313 10.9775 19.9475 10.2938C20.0063 10.1188 20.2563 9.56626 20.1562 9.39876C20.1038 9.24001 19.9388 9.14876 19.8475 9.02001C19.7303 8.85234 19.6298 8.67357 19.5475 8.48626C19.3475 8.01876 19.2475 7.50126 19.03 7.03376C18.93 6.81751 18.755 6.59126 18.6125 6.39251C18.4538 6.16751 18.2787 6.00876 18.1525 5.74251C18.1112 5.65126 18.0525 5.50001 18.1187 5.40001C18.1362 5.33251 18.1712 5.30626 18.2362 5.28751C18.3463 5.19751 18.655 5.31501 18.7638 5.36501C19.0725 5.49001 19.3325 5.60751 19.5913 5.78251C19.7087 5.86501 19.835 6.02376 19.985 6.06501H20.16C20.4275 6.12376 20.7288 6.08251 20.9788 6.15626C21.4225 6.29876 21.8225 6.50626 22.1813 6.73126C23.2868 7.43726 24.1859 8.42309 24.7875 9.58876C24.8875 9.78126 24.9312 9.95751 25.0225 10.1575C25.1975 10.57 25.4137 10.9863 25.5912 11.385C25.7662 11.7788 25.935 12.18 26.1862 12.5063C26.3112 12.6813 26.8138 12.7725 27.0387 12.8638C27.205 12.9388 27.4637 13.0075 27.6138 13.0988C27.9012 13.2738 28.1812 13.4738 28.4513 13.6663C28.5887 13.7613 29.005 13.97 29.03 14.1388Z" fill="#F8F9FA"/>
</svg>
