<svg width="35" height="36" viewBox="0 0 35 36" fill="none" xmlns="http://www.w3.org/2000/svg">
<path d="M13.9781 17.5508H20.2897C20.2897 17.5508 23.8364 17.6077 23.8364 14.1238V8.36187C23.8364 8.36187 24.3745 4.875 17.4066 4.875C10.7362 4.875 11.1518 7.76687 11.1518 7.76687L11.1606 10.7638H17.5233V11.6635H8.63329C8.63329 11.6635 4.36475 11.1794 4.36475 17.9081C4.36475 24.6369 8.09079 24.3977 8.09079 24.3977H10.3133V21.2754C10.3133 21.2754 10.1922 17.5508 13.9781 17.5508ZM13.8964 9.18C13.5928 9.18 13.3016 9.05939 13.0869 8.8447C12.8722 8.63001 12.7516 8.33883 12.7516 8.03521C12.7516 7.73159 12.8722 7.44041 13.0869 7.22572C13.3016 7.01103 13.5928 6.89042 13.8964 6.89042C14.2 6.89042 14.4912 7.01103 14.7059 7.22572C14.9206 7.44041 15.0412 7.73159 15.0412 8.03521C15.0412 8.33883 14.9206 8.63001 14.7059 8.8447C14.4912 9.05939 14.2 9.18 13.8964 9.18Z" fill="#F8F9FA"/>
<path d="M26.9093 11.4841H24.6868V14.6064C24.6868 14.6064 24.8079 18.331 21.022 18.331H14.7104C14.7104 18.331 11.1637 18.2727 11.1637 21.7581V27.5199C11.1637 27.5199 10.6256 31.0068 17.5935 31.0068C24.2624 31.0068 23.8468 28.1149 23.8468 28.1149L23.8381 25.1195H17.4754V24.2197H26.3668C26.3668 24.2197 30.6354 24.7039 30.6354 17.9752C30.6354 11.2464 26.9093 11.4841 26.9093 11.4841ZM21.1037 26.7033C21.4073 26.7033 21.6985 26.8239 21.9132 27.0386C22.1279 27.2533 22.2485 27.5445 22.2485 27.8481C22.2485 28.1517 22.1279 28.4429 21.9132 28.6576C21.6985 28.8723 21.4073 28.9929 21.1037 28.9929C20.8001 28.9929 20.5089 28.8723 20.2942 28.6576C20.0795 28.4429 19.9589 28.1517 19.9589 27.8481C19.9589 27.5445 20.0795 27.2533 20.2942 27.0386C20.5089 26.8239 20.8001 26.7033 21.1037 26.7033Z" fill="#F8F9FA"/>
</svg>
