<svg width="29" height="28" viewBox="0 0 29 28" fill="none" xmlns="http://www.w3.org/2000/svg">
<g clip-path="url(#clip0_656_42)">
<path fill-rule="evenodd" clip-rule="evenodd" d="M0.5 0H28.5V28H0.5V0ZM19.1667 11.2C18.1765 11.2 17.2269 11.5933 16.5268 12.2935C15.8267 12.9936 15.4333 13.9432 15.4333 14.9333C15.4333 15.9235 15.8267 16.8731 16.5268 17.5732C17.2269 18.2733 18.1765 18.6667 19.1667 18.6667H21.0333C21.5284 18.6667 22.0032 18.8633 22.3533 19.2134C22.7033 19.5635 22.9 20.0383 22.9 20.5333C22.9 21.0284 22.7033 21.5032 22.3533 21.8533C22.0032 22.2033 21.5284 22.4 21.0333 22.4H19.1667C18.6716 22.4 18.1968 22.2033 17.8467 21.8533C17.4967 21.5032 17.3 21.0284 17.3 20.5333H15.4333C15.4333 21.5235 15.8267 22.4731 16.5268 23.1732C17.2269 23.8733 18.1765 24.2667 19.1667 24.2667H21.0333C22.0235 24.2667 22.9731 23.8733 23.6732 23.1732C24.3733 22.4731 24.7667 21.5235 24.7667 20.5333C24.7667 19.5432 24.3733 18.5936 23.6732 17.8935C22.9731 17.1933 22.0235 16.8 21.0333 16.8H19.1667C18.6716 16.8 18.1968 16.6033 17.8467 16.2533C17.4967 15.9032 17.3 15.4284 17.3 14.9333C17.3 14.4383 17.4967 13.9635 17.8467 13.6134C18.1968 13.2633 18.6716 13.0667 19.1667 13.0667H21.3451C22.2037 13.0667 22.9 13.7629 22.9 14.6216V14.9333H24.7667V14.6216C24.7667 12.7325 23.236 11.2 21.3451 11.2H19.1667ZM6.1 11.2H15.4333V13.0667H11.7V24.2667H9.83333V13.0667H6.1V11.2Z" fill="#F8F9FA"/>
</g>
<defs>
<clipPath id="clip0_656_42">
<rect width="28" height="28" fill="white" transform="translate(0.5)"/>
</clipPath>
</defs>
</svg>
