<svg width="42" height="41" viewBox="0 0 42 41" fill="none" xmlns="http://www.w3.org/2000/svg">
<path d="M39.9683 20.5C39.9683 25.5391 37.9665 30.3718 34.4033 33.935C30.8401 37.4982 26.0074 39.5 20.9683 39.5C15.9291 39.5 11.0964 37.4982 7.53323 33.935C3.97004 30.3718 1.96826 25.5391 1.96826 20.5M39.9683 20.5C39.9683 15.4609 37.9665 10.6282 34.4033 7.06497C30.8401 3.50178 26.0074 1.5 20.9683 1.5C15.9291 1.5 11.0964 3.50178 7.53323 7.06497C3.97004 10.6282 1.96826 15.4609 1.96826 20.5M39.9683 20.5H1.96826" stroke="#F8F9FA" stroke-width="2.92308" stroke-linecap="round" stroke-linejoin="round"/>
<path d="M28.2758 20.5C27.9168 27.4481 25.3576 34.1021 20.9681 39.5C16.5786 34.1021 14.0193 27.4481 13.6604 20.5C14.0193 13.5519 16.5786 6.89791 20.9681 1.5C25.3576 6.89791 27.9168 13.5519 28.2758 20.5Z" stroke="#F8F9FA" stroke-width="2.92308" stroke-linecap="round" stroke-linejoin="round"/>
</svg>
